<svg id="Capa_1" enable-background="new 0 0 512 512" height="512" viewBox="0 0 512 512" width="512" xmlns="http://www.w3.org/2000/svg"><g><g><path d="m121 361c0 8.284-6.716 15-15 15h-76c-16.569 0-30-13.431-30-30v-255c0-24.853 20.147-45 45-45h61c8.284 0 15 6.716 15 15z" fill="#4d4d99"/></g><g><g><path d="m512 346c0 16.569-13.431 30-30 30h-76c-8.284 0-15-6.716-15-15v-300c0-8.284 6.716-15 15-15h61c24.853 0 45 20.147 45 45z" fill="#292966"/></g></g><g><path d="m421 361c0 8.291-6.709 15-15 15h-300c-8.291 0-15-6.709-15-15v-330c0-8.291 6.709-15 15-15h300c8.291 0 15 6.709 15 15z" fill="#ffe566"/></g><path d="m421 31c0-8.291-6.709-15-15-15h-150v360h150c8.291 0 15-6.709 15-15z" fill="#ffc24d"/><path d="m421 481c0-8.291-6.709-15-15-15h-75v-75c0-8.291-6.709-15-15-15h-120c-8.291 0-15 6.709-15 15v75h-75c-8.291 0-15 6.709-15 15s6.709 15 15 15c8.762 0 323.497 0 300 0 8.291 0 15-6.709 15-15z" fill="#cce6ff"/><path d="m421 481c0-8.291-6.709-15-15-15h-75v-75c0-8.291-6.709-15-15-15h-60v120h150c8.291 0 15-6.709 15-15z" fill="#b5c9f2"/><g><path d="m512 361c0 24.853-20.147 45-45 45h-422c-24.853 0-45-20.147-45-45v-15h512z" fill="#e6f7ff"/></g><path d="m256 406h211c24.853 0 45-20.147 45-45v-15h-256z" fill="#cce6ff"/><g id="Coding_2_"><g><path d="m206.605 110.395c-5.859-5.859-15.352-5.859-21.211 0l-30 30c-5.859 5.859-5.859 15.352 0 21.211l30 30c5.859 5.859 15.351 5.86 21.211 0 5.859-5.859 5.859-15.352 0-21.211l-19.394-19.395 19.395-19.395c5.859-5.859 5.859-15.351-.001-21.21z" fill="#4d4d99"/><path d="m356.605 140.395-30-30c-5.859-5.859-15.352-5.859-21.211 0s-5.859 15.352 0 21.211l19.395 19.394-19.395 19.395c-5.859 5.859-5.859 15.352 0 21.211s15.351 5.86 21.211 0l30-30c5.86-5.86 5.86-15.352 0-21.211z" fill="#292966"/><path d="m274.633 76.454c-8.115-2.021-16.201 2.856-18.193 10.913l-30 120c-1.992 8.027 2.871 16.172 10.928 18.179 8.022 2.006 16.188-2.856 18.193-10.913l30-120c1.992-8.028-2.872-16.172-10.928-18.179z" fill="#4d4d99"/></g><g><path d="m346 286h-180c-8.291 0-15-6.709-15-15s6.709-15 15-15h180c8.291 0 15 6.709 15 15s-6.709 15-15 15z" fill="#4d4d99"/></g></g><g fill="#292966"><path d="m346 256h-90v30h90c8.291 0 15-6.709 15-15s-6.709-15-15-15z"/><path d="m274.633 76.454c-8.115-2.021-16.201 2.856-18.193 10.913l-.44 1.758v123.75l29.561-118.242c1.992-8.028-2.872-16.172-10.928-18.179z"/></g></g></svg>